<?xml version="1.0" encoding="utf-8"?>
<!-- Generator: Adobe Illustrator 16.0.0, SVG Export Plug-In . SVG Version: 6.00 Build 0)  -->
<!DOCTYPE svg PUBLIC "-//W3C//DTD SVG 1.1//EN" "http://www.w3.org/Graphics/SVG/1.1/DTD/svg11.dtd">
<svg version="1.1" id="Layer_1" xmlns="http://www.w3.org/2000/svg" xmlns:xlink="http://www.w3.org/1999/xlink" x="0px" y="0px"
	 width="206.886px" height="206.886px" viewBox="0 0 206.886 206.886" enable-background="new 0 0 206.886 206.886"
	 xml:space="preserve">
<g>
	<defs>
		<rect id="SVGID_101_" x="0" width="206.886" height="206.886"/>
	</defs>
	<clipPath id="SVGID_2_">
		<use xlink:href="#SVGID_101_"  overflow="visible"/>
	</clipPath>
	<rect x="0" clip-path="url(#SVGID_2_)" fill-rule="evenodd" clip-rule="evenodd" fill="none" width="206.886" height="206.886"/>
	<rect x="0" clip-path="url(#SVGID_2_)" fill-rule="evenodd" clip-rule="evenodd" fill="none" width="206.886" height="206.886"/>
	
		<rect x="0" clip-path="url(#SVGID_2_)" fill-rule="evenodd" clip-rule="evenodd" fill="#160000" width="206.886" height="206.886"/>
	<path clip-path="url(#SVGID_2_)" fill-rule="evenodd" clip-rule="evenodd" fill="#260702" d="M113.718,107.101
		c-14.634,0.353-22.519,6.03-9.629,28.209c11.885,18.996,23.681,38.041,35.468,57.09c15.249,26.645-4.909,32.761-16.206,13.311
		c-6.482-10.946-12.965-21.896-19.455-32.839c-14.66-25.036-19.065-17.129-6.151,4.669c8.624,14.443,17.173,28.932,25.804,43.375
		c12.873,23.399-7.908,33.896-21.1,10.553c-9.734-15.498-19.382-31.05-29.122-46.547c-13.215-22.348-14.861-8.631-6.371,4.313
		c7.894,13.164,15.792,26.328,23.683,39.493c11.928,22.614-6.82,32.414-19.279,8.89c-7.799-13.216-15.686-26.387-23.584-39.551
		c-9.223-14.824-16.389-13.337-5.362,5.429c4.131,7.931,8.305,15.961,12.526,23.849c11.398,21.705-4.714,27.054-16.289,7.762
		c-13.89-20.994-27.884-41.92-41.831-62.998c-40.522-57.188-21.99-112.339,21.438-108.754
		c44.854,3.118,81.327,19.005,117.601,34.772c12.758,4.382,11.028,14.99,0.731,13.806
		C128.942,110.294,121.356,108.738,113.718,107.101L113.718,107.101z"/>
	<path clip-path="url(#SVGID_2_)" fill-rule="evenodd" clip-rule="evenodd" fill="#260702" d="M113.718-99.617
		c-14.634,0.353-22.519,6.03-9.629,28.209c11.885,18.996,23.681,38.041,35.468,57.09c15.249,26.645-4.909,32.761-16.206,13.311
		c-6.482-10.946-12.965-21.896-19.455-32.839c-14.66-25.036-19.065-17.129-6.151,4.669c8.624,14.443,17.173,28.932,25.804,43.375
		c12.873,23.399-7.908,33.896-21.1,10.553C92.714,9.252,83.066-6.3,73.326-21.797c-13.215-22.348-14.861-8.631-6.371,4.313
		C74.849-4.32,82.747,8.844,90.638,22.009c11.928,22.614-6.82,32.414-19.279,8.89C63.56,17.683,55.673,4.512,47.774-8.652
		c-9.223-14.824-16.389-13.337-5.362,5.429c4.131,7.931,8.305,15.961,12.526,23.849c11.398,21.705-4.714,27.054-16.289,7.762
		C24.76,7.393,10.766-13.533-3.182-34.611C-43.704-91.8-25.172-146.95,18.257-143.365c44.854,3.118,81.327,19.005,117.601,34.772
		c12.758,4.382,11.028,14.99,0.731,13.806C128.942-96.424,121.356-97.979,113.718-99.617L113.718-99.617z"/>
	<path clip-path="url(#SVGID_2_)" fill-rule="evenodd" clip-rule="evenodd" fill="#0D0004" d="M65.962,150.462
		c14.636-0.353,22.52-6.031,9.63-28.209c-11.886-18.997-23.682-38.042-35.468-57.09c-15.25-26.645,4.908-32.761,16.205-13.311
		c6.482,10.946,12.965,21.895,19.455,32.838c14.662,25.037,19.066,17.13,6.153-4.668C73.312,65.578,64.765,51.09,56.133,36.646
		C43.261,13.247,64.042,2.751,77.231,26.094c9.734,15.499,19.383,31.051,29.123,46.548c13.216,22.348,14.859,8.631,6.371-4.313
		c-7.893-13.163-15.793-26.327-23.683-39.493c-11.927-22.614,6.82-32.414,19.278-8.89c7.799,13.216,15.686,26.388,23.584,39.551
		c9.223,14.825,16.389,13.338,5.364-5.428c-4.132-7.932-8.306-15.961-12.528-23.849c-11.397-21.705,4.715-27.054,16.291-7.762
		c13.889,20.994,27.884,41.92,41.83,62.998c40.523,57.188,21.99,112.339-21.439,108.753c-44.852-3.117-81.326-19.004-117.6-34.772
		c-12.757-4.381-11.029-14.989-0.73-13.805C50.737,147.269,58.325,148.823,65.962,150.462L65.962,150.462z"/>
	<path clip-path="url(#SVGID_2_)" fill-rule="evenodd" clip-rule="evenodd" fill="#240001" d="M126.991,4.933
		c-9.693,0.232-14.922,3.996-6.382,18.689c7.878,12.588,15.692,25.207,23.501,37.827c10.107,17.655-3.25,21.707-10.736,8.819
		c-4.295-7.252-8.592-14.506-12.893-21.759c-9.713-16.587-12.629-11.349-4.074,3.095c5.717,9.571,11.375,19.17,17.096,28.74
		c8.531,15.506-5.239,22.46-13.979,6.992c-6.449-10.27-12.845-20.573-19.299-30.842c-8.757-14.808-9.842-5.72-4.219,2.857
		c5.229,8.723,10.461,17.444,15.688,26.167c7.903,14.985-4.517,21.477-12.771,5.893c-5.167-8.759-10.392-17.484-15.626-26.208
		c-6.113-9.822-10.857-8.836-3.556,3.598c2.739,5.255,5.507,10.575,8.302,15.802c7.554,14.381-3.121,17.925-10.793,5.143
		c-9.202-13.911-18.475-27.775-27.719-41.743C22.686,10.11,34.964-26.431,63.738-24.054c29.721,2.063,53.89,12.591,77.925,23.039
		c8.449,2.902,7.307,9.932,0.482,9.147C137.077,7.048,132.052,6.018,126.991,4.933L126.991,4.933z"/>
	<path clip-path="url(#SVGID_2_)" fill-rule="evenodd" clip-rule="evenodd" fill="#240001" d="M126.991,211.65
		c-9.693,0.232-14.922,3.996-6.382,18.689c7.878,12.588,15.692,25.207,23.501,37.827c10.107,17.655-3.25,21.707-10.736,8.819
		c-4.295-7.252-8.592-14.506-12.893-21.759c-9.713-16.587-12.629-11.349-4.074,3.095c5.717,9.571,11.375,19.17,17.096,28.74
		c8.531,15.506-5.239,22.46-13.979,6.992c-6.449-10.27-12.845-20.573-19.299-30.842c-8.757-14.808-9.842-5.72-4.219,2.857
		c5.229,8.723,10.461,17.444,15.688,26.167c7.903,14.985-4.517,21.477-12.771,5.893c-5.167-8.759-10.392-17.484-15.626-26.208
		c-6.113-9.822-10.857-8.836-3.556,3.598c2.739,5.255,5.507,10.575,8.302,15.802c7.554,14.381-3.121,17.925-10.793,5.143
		c-9.202-13.911-18.475-27.775-27.719-41.743c-26.847-37.893-14.568-74.434,14.206-72.057c29.721,2.063,53.89,12.591,77.925,23.039
		c8.449,2.902,7.307,9.932,0.482,9.147C137.077,213.766,132.052,212.735,126.991,211.65L126.991,211.65z"/>
	<path clip-path="url(#SVGID_2_)" fill-rule="evenodd" clip-rule="evenodd" fill="#260701" d="M96.851,124.891
		c6.268-0.15,9.646-2.583,4.125-12.082c-5.092-8.136-10.145-16.294-15.191-24.452c-6.533-11.412,2.104-14.032,6.94-5.701
		c2.776,4.688,5.556,9.378,8.333,14.065c6.279,10.724,8.166,7.337,2.636-2c-3.696-6.187-7.354-12.393-11.052-18.579
		c-5.516-10.022,3.387-14.519,9.035-4.52c4.17,6.639,8.305,13.3,12.478,19.938c5.659,9.572,6.362,3.697,2.726-1.848
		c-3.379-5.638-6.762-11.276-10.141-16.915c-5.109-9.687,2.919-13.883,8.256-3.809c3.342,5.661,6.719,11.303,10.1,16.941
		c3.953,6.35,7.021,5.712,2.3-2.326c-1.771-3.396-3.56-6.836-5.366-10.215c-4.883-9.296,2.02-11.587,6.977-3.324
		c5.947,8.993,11.941,17.956,17.918,26.984c17.355,24.494,9.418,48.116-9.184,46.58c-19.213-1.335-34.836-8.14-50.371-14.894
		c-5.463-1.876-4.725-6.42-0.313-5.913C90.331,123.523,93.579,124.189,96.851,124.891L96.851,124.891z"/>
	<path clip-path="url(#SVGID_2_)" fill-rule="evenodd" clip-rule="evenodd" fill="#260702" d="M318.698,107.101
		c-14.635,0.353-22.52,6.03-9.629,28.209c11.885,18.996,23.68,38.041,35.467,57.09c15.25,26.645-4.909,32.761-16.205,13.311
		c-6.482-10.946-12.967-21.896-19.455-32.839c-14.662-25.036-19.066-17.129-6.152,4.669c8.625,14.443,17.172,28.932,25.803,43.375
		c12.873,23.399-7.907,33.896-21.098,10.553c-9.734-15.498-19.383-31.05-29.123-46.547c-13.215-22.348-14.861-8.631-6.371,4.313
		c7.893,13.164,15.791,26.328,23.682,39.493c11.928,22.614-6.818,32.414-19.277,8.89c-7.8-13.216-15.686-26.387-23.584-39.551
		c-9.224-14.824-16.389-13.337-5.363,5.429c4.131,7.931,8.305,15.961,12.527,23.849c11.396,21.705-4.715,27.054-16.289,7.762
		c-13.891-20.994-27.885-41.92-41.832-62.998c-40.523-57.188-21.99-112.339,21.439-108.754c44.852,3.118,81.326,19.005,117.6,34.772
		c12.758,4.382,11.029,14.99,0.73,13.806C333.923,110.294,326.337,108.738,318.698,107.101L318.698,107.101z"/>
	<path clip-path="url(#SVGID_2_)" fill-rule="evenodd" clip-rule="evenodd" fill="#1A0605" d="M-56.44,140.443
		c7.85-0.188,12.078-3.233,5.165-15.127c-6.374-10.188-12.699-20.401-19.021-30.616c-8.179-14.289,2.633-17.569,8.69-7.139
		c3.478,5.87,6.952,11.742,10.435,17.611c7.86,13.426,10.224,9.186,3.299-2.504c-4.627-7.746-9.207-15.516-13.837-23.262
		c-6.905-12.549,4.24-18.178,11.312-5.658C-45.175,82.061-40,90.399-34.776,98.71c7.087,11.985,7.969,4.629,3.414-2.313
		c-4.231-7.06-8.467-14.119-12.699-21.179c-6.396-12.128,3.658-17.383,10.338-4.768c4.185,7.088,8.412,14.15,12.647,21.21
		c4.948,7.951,8.79,7.152,2.878-2.911c-2.215-4.253-4.456-8.56-6.719-12.789c-6.113-11.64,2.528-14.509,8.736-4.163
		c7.447,11.26,14.953,22.481,22.433,33.784c21.731,30.669,11.794,60.246-11.497,58.323c-24.052-1.672-43.615-10.192-63.065-18.648
		c-6.843-2.35-5.916-8.039-0.392-7.403C-64.604,138.731-60.535,139.565-56.44,140.443L-56.44,140.443z"/>
	<path clip-path="url(#SVGID_2_)" fill-rule="evenodd" clip-rule="evenodd" fill="#1A0605" d="M148.54,140.443
		c7.849-0.188,12.078-3.233,5.164-15.127c-6.373-10.188-12.699-20.401-19.02-30.616c-8.18-14.289,2.631-17.569,8.689-7.139
		c3.479,5.87,6.953,11.742,10.435,17.611c7.86,13.426,10.224,9.186,3.298-2.504c-4.625-7.746-9.207-15.516-13.836-23.262
		c-6.904-12.549,4.24-18.178,11.313-5.658c5.222,8.312,10.396,16.65,15.62,24.961c7.087,11.985,7.97,4.629,3.415-2.313
		c-4.232-7.06-8.469-14.119-12.701-21.179c-6.395-12.128,3.658-17.383,10.34-4.768c4.184,7.088,8.411,14.15,12.646,21.21
		c4.947,7.951,8.789,7.152,2.877-2.911c-2.215-4.253-4.455-8.56-6.718-12.789c-6.112-11.64,2.528-14.509,8.735-4.163
		c7.449,11.26,14.954,22.481,22.434,33.784c21.732,30.669,11.793,60.246-11.497,58.323c-24.052-1.672-43.615-10.192-63.065-18.648
		c-6.843-2.35-5.916-8.039-0.393-7.403C140.376,138.731,144.444,139.565,148.54,140.443L148.54,140.443z"/>
	<rect x="0" clip-path="url(#SVGID_2_)" fill-rule="evenodd" clip-rule="evenodd" fill="none" width="206.886" height="206.886"/>
</g>
</svg>
