<?xml version="1.0" encoding="utf-8"?>
<!-- Generator: Adobe Illustrator 16.0.0, SVG Export Plug-In . SVG Version: 6.00 Build 0)  -->
<!DOCTYPE svg PUBLIC "-//W3C//DTD SVG 1.1//EN" "http://www.w3.org/Graphics/SVG/1.1/DTD/svg11.dtd">
<svg version="1.1" id="Layer_1" xmlns="http://www.w3.org/2000/svg" xmlns:xlink="http://www.w3.org/1999/xlink" x="0px" y="0px"
	 width="81.803px" height="95.481px" viewBox="0 0 81.803 95.481" enable-background="new 0 0 81.803 95.481" xml:space="preserve">
<path fill="#230000" d="M0,0v70.996v7.641v7.641c0,5.083,4.119,9.203,9.203,9.203H72.6c5.084,0,9.203-4.121,9.203-9.203v-7.641
	v-7.641V0H0z"/>
<g>
	<polygon fill-rule="evenodd" clip-rule="evenodd" fill="#FFFFFF" points="39.576,78.835 43.607,78.835 44.121,70.188 46.381,77.18 
		49.295,77.227 51.836,70.42 52.348,78.788 56.031,78.788 55.17,63.754 51.113,63.754 48.129,72.868 44.938,63.685 40.438,63.685 	
		"/>
	<path fill-rule="evenodd" clip-rule="evenodd" fill="#FFFFFF" d="M57.383,63.265h12.703c0.047,0,0.07,0.07,0.07,0.14v3.006
		c0,0.07-0.023,0.116-0.07,0.116h-4.359v11.654c0,0.117-0.047,0.233-0.117,0.233h-3.775c-0.07,0-0.117-0.116-0.117-0.233V66.527
		h-4.334c-0.047,0-0.07-0.046-0.07-0.116v-3.006C57.313,63.335,57.336,63.265,57.383,63.265L57.383,63.265z"/>
	<polygon fill-rule="evenodd" clip-rule="evenodd" fill="#FFFFFF" points="24.379,78.881 29.135,63.731 33.959,63.731 
		38.807,78.508 34.635,78.555 33.469,75.151 32.652,75.151 31.232,72.611 32.934,72.611 31.42,68.136 28.225,78.881 	"/>
	<path fill-rule="evenodd" clip-rule="evenodd" fill="#FFFFFF" d="M20.021,68.463l3.82-1.329c-2.213-3.915-9.484-6.13-11.232,0.606
		c-1.049,4.032,2.471,4.358,6.408,5.454c0.98,0.279,0.537,2.191-1.305,2.098l-4.102-0.839c-0.699,0.768-1.143,1.771-1.283,2.983
		c2.822,1.399,5.852,1.329,8.928,0.699c2.4-0.49,3.029-4.639,1.445-6.899c-2.355-2.098-6.293-1.025-5.734-3.566
		C17.225,66.411,18.996,66.901,20.021,68.463L20.021,68.463z"/>
	<path fill-rule="evenodd" clip-rule="evenodd" fill="#ED1B23" d="M23.586,37.044c2.844,1.562,4.988,1.352,4.988-4.335
		c-0.162-4.965-0.303-9.929-0.441-14.894c0.045-6.806,4.59-5.733,4.59-0.746c0.023,2.82,0.047,5.641,0.072,8.461
		c0.021,6.432,1.746,5.407,1.699-0.21c-0.045-3.729-0.07-7.459-0.115-11.188c0.139-5.92,5.291-5.617,5.219,0.326
		c0.141,4.056,0.258,8.112,0.398,12.167c0.045,5.757,1.887,3.31,1.701-0.117c-0.047-3.403-0.094-6.806-0.141-10.208
		c0.232-5.664,4.918-5.454,4.686,0.442c0.023,3.403,0.068,6.806,0.115,10.209c0.117,3.869,1.656,4.381,1.633-0.443
		c0.092-1.981,0.186-3.985,0.256-5.967c0.232-5.43,3.916-4.661,3.986,0.327c0.324,5.571,0.676,11.141,1.002,16.735
		c1.398,15.476-8.297,23.983-16.223,18.458c-8.25-5.593-13.473-12.702-18.67-19.764c-1.957-2.261-0.443-4.102,1.398-2.727
		C21.023,34.736,22.305,35.878,23.586,37.044L23.586,37.044z"/>
	<path fill-rule="evenodd" clip-rule="evenodd" fill="#F5811E" d="M53,33.594l0.234,4.01c1.049,11.607-4.148,19.321-10.162,20.09
		c-5.828-2.167-9.766-6.409-9.766-11.304c0-7.085,8.297-12.819,18.529-12.819C52.232,33.571,52.604,33.571,53,33.594L53,33.594z"/>
	<path fill-rule="evenodd" clip-rule="evenodd" fill="#FEFEFE" d="M41.953,36.298c7.039-2.61,12.447-0.443,9.322,6.946
		c-1.725,3.403-3.332,6.806-6.432,10.208c-8.111-1.002-11.887-4.545-15.594-8.903C24.658,36.322,33.049,32.313,41.953,36.298
		L41.953,36.298z M42.141,39.655c0.279,0.535,0.582,1.095,0.885,1.631c0.42,1.538-2.004,2.261-1.771,0.116
		C41.533,40.82,41.836,40.237,42.141,39.655L42.141,39.655z M43.84,50.399c1.936-2.074,3.59-4.521,4.85-7.482
		c2.494-5.221-0.699-6.339-4.592-5.104c1.795,3.379,2.518,6.269-2.098,6.735c-4.148-0.07-3.705-2.726-2.145-5.99
		c-9.533-3.776-11.887,1.352-7.365,6.083C35.916,47.159,39.365,49.653,43.84,50.399L43.84,50.399z"/>
</g>
</svg>
